solid f18
facet normal -0.890005533126445 -0.455181379383754 -0.026458701151323
outer loop
vertex 24.0859396226909 -14.5978795298952 19.0441080112505
vertex 28.8525212246891 -23.6380157752263 14.2297252801549
vertex 28.7868648900764 -23.7941951434226 19.1250691821932
endloop
endfacet
facet normal -0.890005533126445 -0.455181379383754 -0.026458701151323
outer loop
vertex 28.8525212246891 -23.6380157752263 14.2297252801549
vertex 24.0859396226909 -14.5978795298952 19.0441080112505
vertex 24.0645766344271 -14.307519989259 14.7675156790023
endloop
endfacet
facet normal -0.888980511919588 -0.456964331865096 -0.0299541120762216
outer loop
vertex 31.4661651251083 -28.5512198438037 13.9464168815839
vertex 34.6690679485367 -34.935641669164 16.3979048014374
vertex 30.9465776061644 -27.6748785558373 16.5796236636772
endloop
endfacet
facet normal -0.888980511919588 -0.456964331865096 -0.0299541120762216
outer loop
vertex 34.6690679485367 -34.935641669164 16.3979048014374
vertex 31.4661651251083 -28.5512198438037 13.9464168815839
vertex 35.3357897828153 -35.9454652187868 12.3952712061955
endloop
endfacet
facet normal -0.889184391628721 -0.45694294384385 -0.0235428068670065
outer loop
vertex 31.396178859674 -28.7176989928821 19.1646009264435
vertex 34.6690679485367 -34.935641669164 16.3979048014374
vertex 34.5818703384873 -34.935641669164 20.1452151616957
endloop
endfacet
facet normal -0.889184391628721 -0.45694294384385 -0.0235428068670065
outer loop
vertex 34.6690679485367 -34.935641669164 16.3979048014374
vertex 31.396178859674 -28.7176989928821 19.1646009264435
vertex 30.9465776061644 -27.6748785558373 16.5796236636772
endloop
endfacet
facet normal 0.011627919254591 0.030720678535735 -0.999460370101843
outer loop
vertex 29.0045127260109 -28.7068216980477 16.5206545826316
vertex 34.6690679485367 -34.935641669164 16.3979048014374
vertex 32.7128622869534 -35.9409161456206 16.3461106263299
endloop
endfacet
facet normal 0.011627919254591 0.030720678535735 -0.999460370101843
outer loop
vertex 34.6690679485367 -34.935641669164 16.3979048014374
vertex 29.0045127260109 -28.7068216980477 16.5206545826316
vertex 30.9465776061644 -27.6748785558373 16.5796236636772
endloop
endfacet
facet normal 0.011627919254591 0.030720678535735 -0.999460370101843
outer loop
vertex 30.9465776061644 -27.6748785558373 16.5796236636772
vertex 29.0045127260109 -28.7068216980477 16.5206545826316
vertex 28.9903719445812 -28.6801530322938 16.5278294885697
endloop
endfacet
facet normal -0.085774394416968 0.112688525673422 0.989921233959527
outer loop
vertex 34.5818703384873 -34.935641669164 20.1452151616957
vertex 29.4541139795206 -29.7496421350926 19.1056318453979
vertex 32.6256646769041 -35.9409161456206 20.0934209865882
endloop
endfacet
facet normal -0.085774394416968 0.112688525673422 0.989921233959527
outer loop
vertex 29.4541139795206 -29.7496421350926 19.1056318453979
vertex 34.5818703384873 -34.935641669164 20.1452151616957
vertex 31.396178859674 -28.7176989928821 19.1646009264435
endloop
endfacet
facet normal -0.085774394416968 0.112688525673422 0.989921233959527
outer loop
vertex 29.4541139795206 -29.7496421350926 19.1056318453979
vertex 31.396178859674 -28.7176989928821 19.1646009264435
vertex 29.4399731980908 -29.7229734693387 19.112806751336
endloop
endfacet
facet normal -0.882756763706118 -0.469065064641115 -0.0268041277479536
outer loop
vertex 28.7868648900764 -23.7941951434226 19.1250691821932
vertex 30.9465776061644 -27.6748785558373 16.5796236636772
vertex 31.396178859674 -28.7176989928821 19.1646009264435
endloop
endfacet
facet normal -0.882756763706118 -0.469065064641115 -0.0268041277479536
outer loop
vertex 30.9465776061644 -27.6748785558373 16.5796236636772
vertex 28.7868648900764 -23.7941951434226 19.1250691821932
vertex 28.8525212246891 -23.6380157752263 14.2297252801549
endloop
endfacet
facet normal -0.882756763706118 -0.469065064641115 -0.0268041277479536
outer loop
vertex 30.9465776061644 -27.6748785558373 16.5796236636772
vertex 28.8525212246891 -23.6380157752263 14.2297252801549
vertex 31.4661651251083 -28.5512198438037 13.9464168815839
endloop
endfacet
facet normal 0.456821141821431 -0.889495052602636 0.0106299473375083
outer loop
vertex 32.7128622869534 -35.9409161456206 16.3461106263299
vertex 34.5818703384873 -34.935641669164 20.1452151616957
vertex 32.6256646769041 -35.9409161456206 20.0934209865882
endloop
endfacet
facet normal 0.456821141821431 -0.889495052602636 0.0106299473375083
outer loop
vertex 34.5818703384873 -34.935641669164 20.1452151616957
vertex 32.7128622869534 -35.9409161456206 16.3461106263299
vertex 34.6690679485367 -34.935641669164 16.3979048014374
endloop
endfacet
facet normal -0.882823183882763 -0.46890596349832 -0.0273938568809528
outer loop
vertex 26.7850403811222 -24.8578792353869 19.0642457697838
vertex 28.9306123157805 -28.7118939820476 16.5259751572058
vertex 29.3802135692901 -29.7547144190925 19.1109524199721
endloop
endfacet
facet normal -0.882823183882763 -0.46890596349832 -0.0273938568809528
outer loop
vertex 28.9306123157805 -28.7118939820476 16.5259751572058
vertex 26.7850403811222 -24.8578792353869 19.0642457697838
vertex 26.8506967157349 -24.7016998671906 14.1689018677455
endloop
endfacet
facet normal -0.882823183882763 -0.46890596349832 -0.0273938568809528
outer loop
vertex 28.9306123157805 -28.7118939820476 16.5259751572058
vertex 26.8506967157349 -24.7016998671906 14.1689018677455
vertex 29.4585804251135 -29.5842049944301 13.8789307734768
endloop
endfacet
facet normal -0.889133294687242 -0.456963407643221 -0.0250285507711921
outer loop
vertex 29.4541139795206 -29.7496421350926 19.1056318453979
vertex 32.7128622869534 -35.9409161456206 16.3461106263299
vertex 32.6256646769041 -35.9409161456206 20.0934209865882
endloop
endfacet
facet normal -0.889133294687242 -0.456963407643221 -0.0250285507711921
outer loop
vertex 32.7128622869534 -35.9409161456206 16.3461106263299
vertex 29.4541139795206 -29.7496421350926 19.1056318453979
vertex 29.0045127260109 -28.7068216980477 16.5206545826316
endloop
endfacet
facet normal -0.179956219134131 0.983674209838143 0.000898940628120272
outer loop
vertex -3.69497778424373 -18.4770665791216 18.9364083024033
vertex -4.86551364855663 -18.6875226323747 14.9038654403754
vertex -4.8465316329078 -18.6875226323747 18.7038180299588
endloop
endfacet
facet normal -0.387163821357418 0.919760422719588 0.064381210229423
outer loop
vertex -3.71642481969414 -18.1855646935015 14.6429908168
vertex -4.86551364855663 -18.6875226323747 14.9038654403754
vertex -3.69497778424373 -18.4770665791216 18.9364083024033
endloop
endfacet
facet normal -0.197981471411475 0.0 0.98020576257118
outer loop
vertex -3.69497778424373 -18.4770665791216 18.9364083024033
vertex -4.8465316329078 -21.6960207467545 18.7038180299588
vertex -4.8465316329078 -21.9875226323746 18.7038180299588
endloop
endfacet
facet normal -0.197981471411475 0.0 0.98020576257118
outer loop
vertex -4.8465316329078 -21.6960207467545 18.7038180299588
vertex -3.69497778424373 -18.4770665791216 18.9364083024033
vertex -4.8465316329078 -18.6875226323747 18.7038180299588
endloop
endfacet
facet normal -0.282798271769348 0.155479170065459 -0.946494249935004
outer loop
vertex -3.71642481969414 -18.1855646935015 14.6429908168
vertex -4.86797866835821 -21.6960207467545 14.4104005443556
vertex -4.86551364855663 -18.6875226323747 14.9038654403754
endloop
endfacet
facet normal -0.99998752357459 0.0 0.0049952672760065
outer loop
vertex -4.86551364855663 -18.6875226323747 14.9038654403754
vertex -4.8465316329078 -21.6960207467545 18.7038180299588
vertex -4.8465316329078 -18.6875226323747 18.7038180299588
endloop
endfacet
facet normal -0.99998752357459 0.0 0.0049952672760065
outer loop
vertex -4.8465316329078 -21.6960207467545 18.7038180299588
vertex -4.86551364855663 -18.6875226323747 14.9038654403754
vertex -4.86797866835821 -21.6960207467545 14.4104005443556
endloop
endfacet
facet normal 0.0491989925074866 -0.153564745038741 0.986913029713072
outer loop
vertex 24.0859396226909 -14.5978795298952 19.0441080112505
vertex 21.9991777267001 -15.4724009963374 19.0120595103319
vertex 22.0779594394243 -15.6248340325081 18.9844133850832
endloop
endfacet
facet normal 0.0105705180948802 -0.0617979186749015 0.998032705573648
outer loop
vertex 23.9520197296764 -14.472460845878 19.0532922957298
vertex 21.9991777267001 -15.4724009963374 19.0120595103319
vertex 24.0859396226909 -14.5978795298952 19.0441080112505
endloop
endfacet
facet normal -0.99998752357459 0.0 0.0049952672760065
outer loop
vertex -4.86797866835821 -21.6960207467545 14.4104005443556
vertex -4.8465316329078 -21.9875226323746 18.7038180299588
vertex -4.8465316329078 -21.6960207467545 18.7038180299588
endloop
endfacet
facet normal 0.00531658414118045 -0.0681557131856378 0.997660529786173
outer loop
vertex 21.9991777267001 -15.4724009963374 19.0120595103319
vertex 19.5676519539753 -13.2749440155068 19.1734022810385
vertex 22.0779594394243 -15.6248340325081 18.9844133850832
endloop
endfacet
facet normal 0.00531658414118045 -0.0681557131856378 0.997660529786173
outer loop
vertex 19.5676519539753 -13.2749440155068 19.1734022810385
vertex 21.9991777267001 -15.4724009963374 19.0120595103319
vertex 23.9520197296764 -14.472460845878 19.0532922957298
endloop
endfacet
facet normal 0.00531658414118045 -0.0681557131856378 0.997660529786173
outer loop
vertex 19.5676519539753 -13.2749440155068 19.1734022810385
vertex 23.9520197296764 -14.472460845878 19.0532922957298
vertex 21.3874659081467 -12.0717680397554 19.246001428995
endloop
endfacet
facet normal 0.00531658414118045 -0.0681557131856378 0.997660529786173
outer loop
vertex 19.5676519539753 -13.2749440155068 19.1734022810385
vertex 21.3874659081467 -12.0717680397554 19.246001428995
vertex 16.5978233786689 -11.5366899560764 19.3062564366522
endloop
endfacet
facet normal 0.00531658414118045 -0.0681557131856378 0.997660529786173
outer loop
vertex 16.5978233786689 -11.5366899560764 19.3062564366522
vertex 21.3874659081467 -12.0717680397554 19.246001428995
vertex 18.1950340310008 -10.2032232637892 19.3888136589395
endloop
endfacet
facet normal 0.00531658414118045 -0.0681557131856378 0.997660529786173
outer loop
vertex 16.5978233786689 -11.5366899560764 19.3062564366522
vertex 18.1950340310008 -10.2032232637892 19.3888136589395
vertex 13.3158401102512 -10.4974192226602 19.3932123851985
endloop
endfacet
facet normal 0.00531658414118045 -0.0681557131856378 0.997660529786173
outer loop
vertex 13.3158401102512 -10.4974192226602 19.3932123851985
vertex 18.1950340310008 -10.2032232637892 19.3888136589395
vertex 9.88446514824589 -10.2086722431195 19.4299577308319
endloop
endfacet
facet normal 0.00531658414118045 -0.0681557131856378 0.997660529786173
outer loop
vertex -4.83708980408375 -22.4992884864728 18.6690244858406
vertex -5.19094012794633 -25.6649369258322 18.4558601588418
vertex -5.15748323125944 -25.9202824096742 18.4383563308247
endloop
endfacet
facet normal 0.00531658414118045 -0.0681557131856378 0.997660529786173
outer loop
vertex -5.19094012794633 -25.6649369258322 18.4558601588418
vertex -4.83708980408375 -22.4992884864728 18.6690244858406
vertex -4.8465316329078 -21.9875226323746 18.7038180299588
endloop
endfacet
facet normal 0.00531658414118045 -0.0681557131856378 0.997660529786173
outer loop
vertex -4.8465316329078 -21.9875226323746 18.7038180299588
vertex -4.83708980408375 -22.4992884864728 18.6690244858406
vertex -3.76583201147453 -19.2336110654627 18.8853966009009
endloop
endfacet
facet normal 0.00531658414118045 -0.0681557131856378 0.997660529786173
outer loop
vertex -4.8465316329078 -21.9875226323746 18.7038180299588
vertex -3.76583201147453 -19.2336110654627 18.8853966009009
vertex -3.69497778424373 -18.4770665791216 18.9364083024033
endloop
endfacet
facet normal 0.00531658414118045 -0.0681557131856378 0.997660529786173
outer loop
vertex -3.69497778424373 -18.4770665791216 18.9364083024033
vertex -3.76583201147453 -19.2336110654627 18.8853966009009
vertex -1.99683661165325 -16.285204492248 19.0767421598571
endloop
endfacet
facet normal 0.00531658414118045 -0.0681557131856378 0.997660529786173
outer loop
vertex -3.69497778424373 -18.4770665791216 18.9364083024033
vertex -1.99683661165325 -16.285204492248 19.0767421598571
vertex -1.79338745277779 -15.3076623887986 19.1420961549081
endloop
endfacet
facet normal 0.00531658414118045 -0.0681557131856378 0.997660529786173
outer loop
vertex -1.79338745277779 -15.3076623887986 19.1420961549081
vertex -1.99683661165325 -16.285204492248 19.0767421598571
vertex 0.382166820342604 -13.800288737628 19.2335717855327
endloop
endfacet
facet normal 0.00531658414118045 -0.0681557131856378 0.997660529786173
outer loop
vertex -1.79338745277779 -15.3076623887986 19.1420961549081
vertex 0.382166820342604 -13.800288737628 19.2335717855327
vertex 0.763934022034785 -12.6364899403172 19.3106809346662
endloop
endfacet
facet normal 0.00531658414118045 -0.0681557131856378 0.997660529786173
outer loop
vertex 0.763934022034785 -12.6364899403172 19.3106809346662
vertex 0.382166820342604 -13.800288737628 19.2335717855327
vertex 3.25319665487015 -11.9020979282593 19.3481078452582
endloop
endfacet
facet normal 0.00531658414118045 -0.0681557131856378 0.997660529786173
outer loop
vertex 0.763934022034785 -12.6364899403172 19.3106809346662
vertex 3.25319665487015 -11.9020979282593 19.3481078452582
vertex 3.85016170540775 -10.5960203660392 19.4338020370728
endloop
endfacet
facet normal 0.00531658414118045 -0.0681557131856378 0.997660529786173
outer loop
vertex 3.85016170540775 -10.5960203660392 19.4338020370728
vertex 3.25319665487015 -11.9020979282593 19.3481078452582
vertex 6.47387025637904 -10.6847688115087 19.414670166068
endloop
endfacet
facet normal 0.00531658414118045 -0.0681557131856378 0.997660529786173
outer loop
vertex 3.85016170540775 -10.5960203660392 19.4338020370728
vertex 6.47387025637904 -10.6847688115087 19.414670166068
vertex 9.88446514824589 -10.2086722431195 19.4299577308319
endloop
endfacet
facet normal 0.00531658414118045 -0.0681557131856378 0.997660529786173
outer loop
vertex 3.85016170540775 -10.5960203660392 19.4338020370728
vertex 9.88446514824589 -10.2086722431195 19.4299577308319
vertex 7.3122406808848 -9.28744642692172 19.5053535321783
endloop
endfacet
facet normal 0.00531658414118045 -0.0681557131856378 0.997660529786173
outer loop
vertex 7.3122406808848 -9.28744642692172 19.5053535321783
vertex 9.88446514824589 -10.2086722431195 19.4299577308319
vertex 18.1950340310008 -10.2032232637892 19.3888136589395
endloop
endfacet
facet normal 0.00531658414118045 -0.0681557131856378 0.997660529786173
outer loop
vertex 7.3122406808848 -9.28744642692172 19.5053535321783
vertex 18.1950340310008 -10.2032232637892 19.3888136589395
vertex 14.6670499266405 -9.08605406219634 19.4822873847817
endloop
endfacet
facet normal 0.00531658414118045 -0.0681557131856378 0.997660529786173
outer loop
vertex 7.3122406808848 -9.28744642692172 19.5053535321783
vertex 14.6670499266405 -9.08605406219634 19.4822873847817
vertex 10.9784764843111 -8.77566407215451 19.5217869753346
endloop
endfacet
facet normal -0.99998752357459 0.0 0.0049952672760065
outer loop
vertex -4.86797866835821 -21.9875226323746 14.4104005443556
vertex -4.8465316329078 -21.9875226323746 18.7038180299588
vertex -4.86797866835821 -21.6960207467545 14.4104005443556
endloop
endfacet
facet normal 0.407038125630416 0.91144829517692 0.0598495572445142
outer loop
vertex 18.1950340310008 -10.2032232637892 19.3888136589395
vertex 14.6456028911901 -8.7945521765762 15.1888698991785
vertex 14.6670499266405 -9.08605406219634 19.4822873847817
endloop
endfacet
facet normal 0.194801219666413 0.978655098770875 0.0654727612541839
outer loop
vertex 14.6456028911901 -8.7945521765762 15.1888698991785
vertex 18.1950340310008 -10.2032232637892 19.3888136589395
vertex 18.1735869955504 -9.91172137816905 15.0953961733362
endloop
endfacet
facet normal 0.995650123051469 -0.092488914276008 -0.0112531419452474
outer loop
vertex -5.15748323125944 -25.9202824096742 18.4383563308247
vertex -4.85853683953415 -22.2077866008527 14.3756070002374
vertex -4.83708980408375 -22.4992884864728 18.6690244858406
endloop
endfacet
facet normal 0.995650123051469 -0.092488914276008 -0.0112531419452474
outer loop
vertex -4.85853683953415 -22.2077866008527 14.3756070002374
vertex -5.15748323125944 -25.9202824096742 18.4383563308247
vertex -5.17893026670985 -25.628780524054 14.1449388452215
endloop
endfacet
facet normal 0.598951740793698 0.79914242954364 0.0512658707454317
outer loop
vertex 21.3874659081467 -12.0717680397554 19.246001428995
vertex 18.1735869955504 -9.91172137816905 15.0953961733362
vertex 18.1950340310008 -10.2032232637892 19.3888136589395
endloop
endfacet
facet normal 0.407038125630415 0.91144829517692 0.0598495572445143
outer loop
vertex 18.1735869955504 -9.91172137816905 15.0953961733362
vertex 21.3874659081467 -12.0717680397554 19.246001428995
vertex 21.3660188726963 -11.7802661541352 14.9525839433917
endloop
endfacet
facet normal 0.194801219666413 0.978655098770875 0.0654727612541839
outer loop
vertex 14.6670499266405 -9.08605406219634 19.4822873847817
vertex 10.9570294488607 -8.48416218653438 15.2283694897314
vertex 10.9784764843111 -8.77566407215451 19.5217869753346
endloop
endfacet
facet normal -0.0270964396380715 0.997327578345615 0.067848982528941
outer loop
vertex 10.9570294488607 -8.48416218653438 15.2283694897314
vertex 14.6670499266405 -9.08605406219634 19.4822873847817
vertex 14.6456028911901 -8.7945521765762 15.1888698991785
endloop
endfacet
facet normal -0.0270964396380715 0.997327578345614 0.067848982528941
outer loop
vertex 10.9784764843111 -8.77566407215451 19.5217869753346
vertex 7.2907936454344 -8.99594454130158 15.211936046575
vertex 7.3122406808848 -9.28744642692172 19.5053535321783
endloop
endfacet
facet normal -0.247650308486842 0.96653971187861 0.0668603774143301
outer loop
vertex 7.2907936454344 -8.99594454130158 15.211936046575
vertex 10.9784764843111 -8.77566407215451 19.5217869753346
vertex 10.9570294488607 -8.48416218653438 15.2283694897314
endloop
endfacet
facet normal -0.247650308486842 0.966539711878609 0.0668603774143301
outer loop
vertex 7.3122406808848 -9.28744642692172 19.5053535321783
vertex 3.82871466995734 -10.3045184804191 15.1403845514696
vertex 3.85016170540775 -10.5960203660392 19.4338020370728
endloop
endfacet
facet normal -0.455922485521352 0.887818358310101 0.0625559736843034
outer loop
vertex 3.82871466995734 -10.3045184804191 15.1403845514696
vertex 7.3122406808848 -9.28744642692172 19.5053535321783
vertex 7.2907936454344 -8.99594454130158 15.211936046575
endloop
endfacet
facet normal -0.455922485521353 0.8878183583101 0.0625559736843034
outer loop
vertex 3.85016170540775 -10.5960203660392 19.4338020370728
vertex 0.742486986584379 -12.3449880546971 15.017263449063
vertex 0.763934022034785 -12.6364899403172 19.3106809346662
endloop
endfacet
facet normal -0.641584153840658 0.76506753621223 0.0551492391127527
outer loop
vertex 0.742486986584379 -12.3449880546971 15.017263449063
vertex 3.85016170540775 -10.5960203660392 19.4338020370728
vertex 3.82871466995734 -10.3045184804191 15.1403845514696
endloop
endfacet
facet normal -0.641584153840658 0.76506753621223 0.0551492391127527
outer loop
vertex 0.742486986584379 -12.3449880546971 15.017263449063
vertex -1.79338745277779 -15.3076623887986 19.1420961549081
vertex 0.763934022034785 -12.6364899403172 19.3106809346662
endloop
endfacet
facet normal -0.795427816769499 0.604374812267895 0.0450074949920022
outer loop
vertex -1.79338745277779 -15.3076623887986 19.1420961549081
vertex 0.742486986584379 -12.3449880546971 15.017263449063
vertex -1.8148344882282 -15.0161605031785 14.8486786693048
endloop
endfacet
facet normal -0.795427816769499 0.604374812267896 0.0450074949920023
outer loop
vertex -1.8148344882282 -15.0161605031785 14.8486786693048
vertex -3.69497778424373 -18.4770665791216 18.9364083024033
vertex -1.79338745277779 -15.3076623887986 19.1420961549081
endloop
endfacet
facet normal -0.85796105357164 0.512227364182611 0.0390635115776271
outer loop
vertex -3.69497778424373 -18.4770665791216 18.9364083024033
vertex -1.8148344882282 -15.0161605031785 14.8486786693048
vertex -3.71642481969414 -18.1855646935015 14.6429908168
endloop
endfacet
facet normal -0.950371415682854 0.310046180608478 0.0257980259528229
outer loop
vertex -3.71642481969414 -18.1855646935015 14.6429908168
vertex -4.8465316329078 -21.9875226323746 18.7038180299588
vertex -3.69497778424373 -18.4770665791216 18.9364083024033
endloop
endfacet
facet normal -0.950371415682854 0.310046180608478 0.0257980259528229
outer loop
vertex -4.8465316329078 -21.9875226323746 18.7038180299588
vertex -3.71642481969414 -18.1855646935015 14.6429908168
vertex -4.86797866835821 -21.6960207467545 14.4104005443556
endloop
endfacet
facet normal -0.995650123051469 0.0924889142760078 0.0112531419452477
outer loop
vertex -4.86797866835821 -21.6960207467545 14.4104005443556
vertex -5.19094012794633 -25.6649369258322 18.4558601588418
vertex -4.8465316329078 -21.9875226323746 18.7038180299588
endloop
endfacet
facet normal -0.999818212615184 -0.0186993958168066 0.00372482470269638
outer loop
vertex -5.19094012794633 -25.6649369258322 18.4558601588418
vertex -4.86797866835821 -21.6960207467545 14.4104005443556
vertex -5.21238716339674 -25.3734350402121 14.1624426732386
endloop
endfacet
facet normal -0.999818212615184 -0.0186993958168064 0.00372482470269639
outer loop
vertex -5.21238716339674 -25.3734350402121 14.1624426732386
vertex -5.15748323125944 -25.9202824096742 18.4383563308247
vertex -5.19094012794633 -25.6649369258322 18.4558601588418
endloop
endfacet
facet normal -0.991551674215983 -0.129655143602613 -0.00384981777060247
outer loop
vertex -5.15748323125944 -25.9202824096742 18.4383563308247
vertex -5.21238716339674 -25.3734350402121 14.1624426732386
vertex -5.17893026670985 -25.628780524054 14.1449388452215
endloop
endfacet
facet normal 0.950371415682854 -0.31004618060848 -0.0257980259528182
outer loop
vertex -4.83708980408375 -22.4992884864728 18.6690244858406
vertex -3.78727904692493 -18.9421091798426 14.5919791152977
vertex -3.76583201147453 -19.2336110654627 18.8853966009009
endloop
endfacet
facet normal 0.950371415682854 -0.31004618060848 -0.0257980259528182
outer loop
vertex -3.78727904692493 -18.9421091798426 14.5919791152977
vertex -4.83708980408375 -22.4992884864728 18.6690244858406
vertex -4.85853683953415 -22.2077866008527 14.3756070002374
endloop
endfacet
facet normal 0.857961053571641 -0.51222736418261 -0.0390635115776271
outer loop
vertex -3.76583201147453 -19.2336110654627 18.8853966009009
vertex -2.01828364710366 -15.9937026066279 14.7833246742539
vertex -1.99683661165325 -16.285204492248 19.0767421598571
endloop
endfacet
facet normal 0.857961053571641 -0.51222736418261 -0.0390635115776271
outer loop
vertex -2.01828364710366 -15.9937026066279 14.7833246742539
vertex -3.76583201147453 -19.2336110654627 18.8853966009009
vertex -3.78727904692493 -18.9421091798426 14.5919791152977
endloop
endfacet
facet normal 0.723001932635985 -0.689005717999894 -0.0503917251945365
outer loop
vertex -1.99683661165325 -16.285204492248 19.0767421598571
vertex 0.360719784892197 -13.5087868520078 14.9401542999295
vertex 0.382166820342604 -13.800288737628 19.2335717855327
endloop
endfacet
facet normal 0.723001932635985 -0.689005717999894 -0.0503917251945365
outer loop
vertex 0.360719784892197 -13.5087868520078 14.9401542999295
vertex -1.99683661165325 -16.285204492248 19.0767421598571
vertex -2.01828364710366 -15.9937026066279 14.7833246742539
endloop
endfacet
facet normal 0.552187064247376 -0.831614294527407 -0.0592208680749315
outer loop
vertex 3.23174961941975 -11.6105960426391 15.0546903596549
vertex 0.382166820342604 -13.800288737628 19.2335717855327
vertex 0.360719784892197 -13.5087868520078 14.9401542999295
endloop
endfacet
facet normal 0.552187064247376 -0.831614294527407 -0.0592208680749315
outer loop
vertex 0.382166820342604 -13.800288737628 19.2335717855327
vertex 3.23174961941975 -11.6105960426391 15.0546903596549
vertex 3.25319665487015 -11.9020979282593 19.3481078452582
endloop
endfacet
facet normal 0.353987649526702 -0.932980723867115 -0.0651130776031601
outer loop
vertex 6.45242322092863 -10.3932669258885 15.1212526804648
vertex 3.25319665487015 -11.9020979282593 19.3481078452582
vertex 3.23174961941975 -11.6105960426391 15.0546903596549
endloop
endfacet
facet normal 0.353987649526702 -0.932980723867115 -0.0651130776031601
outer loop
vertex 3.25319665487015 -11.9020979282593 19.3481078452582
vertex 6.45242322092863 -10.3932669258885 15.1212526804648
vertex 6.47387025637904 -10.6847688115087 19.414670166068
endloop
endfacet
facet normal 0.138232968091021 -0.988077952941357 -0.0677761421443048
outer loop
vertex 9.86301811279549 -9.91717035749939 15.1365402452287
vertex 6.47387025637904 -10.6847688115087 19.414670166068
vertex 6.45242322092863 -10.3932669258885 15.1212526804648
endloop
endfacet
facet normal 0.138232968091021 -0.988077952941357 -0.0677761421443048
outer loop
vertex 6.47387025637904 -10.6847688115087 19.414670166068
vertex 9.86301811279549 -9.91717035749939 15.1365402452287
vertex 9.88446514824589 -10.2086722431195 19.4299577308319
endloop
endfacet
facet normal -0.0843770842224093 -0.994173551528488 -0.0670779926604723
outer loop
vertex 13.2943930748008 -10.2059173370401 15.0997948995953
vertex 9.88446514824589 -10.2086722431195 19.4299577308319
vertex 9.86301811279549 -9.91717035749939 15.1365402452287
endloop
endfacet
facet normal -0.0843770842224093 -0.994173551528488 -0.0670779926604723
outer loop
vertex 9.88446514824589 -10.2086722431195 19.4299577308319
vertex 13.2943930748008 -10.2059173370401 15.0997948995953
vertex 13.3158401102512 -10.4974192226602 19.3932123851985
endloop
endfacet
facet normal -0.302802633997006 -0.950965221344574 -0.0630532523946261
outer loop
vertex 16.5763763432185 -11.2451880704563 15.012838951049
vertex 13.3158401102512 -10.4974192226602 19.3932123851985
vertex 13.2943930748008 -10.2059173370401 15.0997948995953
endloop
endfacet
facet normal -0.302802633997006 -0.950965221344574 -0.0630532523946261
outer loop
vertex 13.3158401102512 -10.4974192226602 19.3932123851985
vertex 16.5763763432185 -11.2451880704563 15.012838951049
vertex 16.5978233786689 -11.5366899560764 19.3062564366522
endloop
endfacet
facet normal -0.506211329344808 -0.860595787885656 -0.0559015198042831
outer loop
vertex 19.5462049185249 -12.9834421298867 14.8799847954353
vertex 16.5978233786689 -11.5366899560764 19.3062564366522
vertex 16.5763763432185 -11.2451880704563 15.012838951049
endloop
endfacet
facet normal -0.506211329344808 -0.860595787885656 -0.0559015198042831
outer loop
vertex 16.5978233786689 -11.5366899560764 19.3062564366522
vertex 19.5462049185249 -12.9834421298867 14.8799847954353
vertex 19.5676519539753 -13.2749440155068 19.1734022810385
endloop
endfacet
facet normal 0.0105705180948802 -0.0617979186749015 0.998032705573648
outer loop
vertex 23.9520197296764 -14.472460845878 19.0532922957298
vertex 21.9991777267001 -15.4724009963374 19.0120595103319
vertex 24.0859396226909 -14.5978795298952 19.0441080112505
endloop
endfacet
facet normal -0.00498379377111988 0.0677382795017253 -0.997690677158904
outer loop
vertex -5.21238716339674 -25.3734350402121 14.1624426732386
vertex -4.85853683953415 -22.2077866008527 14.3756070002374
vertex -5.17893026670985 -25.628780524054 14.1449388452215
endloop
endfacet
facet normal -0.00498379377111988 0.0677382795017253 -0.997690677158904
outer loop
vertex -4.85853683953415 -22.2077866008527 14.3756070002374
vertex -5.21238716339674 -25.3734350402121 14.1624426732386
vertex -4.86797866835821 -21.6960207467545 14.4104005443556
endloop
endfacet
facet normal -0.00498379377111988 0.0677382795017253 -0.997690677158904
outer loop
vertex -4.85853683953415 -22.2077866008527 14.3756070002374
vertex -4.86797866835821 -21.6960207467545 14.4104005443556
vertex -3.78727904692493 -18.9421091798426 14.5919791152977
endloop
endfacet
facet normal -0.00498379377111988 0.0677382795017253 -0.997690677158904
outer loop
vertex -3.78727904692493 -18.9421091798426 14.5919791152977
vertex -4.86797866835821 -21.6960207467545 14.4104005443556
vertex -3.71642481969414 -18.1855646935015 14.6429908168
endloop
endfacet
facet normal -0.00498379377111988 0.0677382795017253 -0.997690677158904
outer loop
vertex -3.78727904692493 -18.9421091798426 14.5919791152977
vertex -3.71642481969414 -18.1855646935015 14.6429908168
vertex -2.01828364710366 -15.9937026066279 14.7833246742539
endloop
endfacet
facet normal -0.00498379377111988 0.0677382795017253 -0.997690677158904
outer loop
vertex -2.01828364710366 -15.9937026066279 14.7833246742539
vertex -3.71642481969414 -18.1855646935015 14.6429908168
vertex -1.8148344882282 -15.0161605031785 14.8486786693048
endloop
endfacet
facet normal -0.00498379377111988 0.0677382795017253 -0.997690677158904
outer loop
vertex -2.01828364710366 -15.9937026066279 14.7833246742539
vertex -1.8148344882282 -15.0161605031785 14.8486786693048
vertex 0.360719784892197 -13.5087868520078 14.9401542999295
endloop
endfacet
facet normal -0.00498379377111988 0.0677382795017253 -0.997690677158904
outer loop
vertex 0.360719784892197 -13.5087868520078 14.9401542999295
vertex -1.8148344882282 -15.0161605031785 14.8486786693048
vertex 0.742486986584379 -12.3449880546971 15.017263449063
endloop
endfacet
facet normal -0.00498379377111988 0.0677382795017253 -0.997690677158904
outer loop
vertex 0.360719784892197 -13.5087868520078 14.9401542999295
vertex 0.742486986584379 -12.3449880546971 15.017263449063
vertex 3.23174961941975 -11.6105960426391 15.0546903596549
endloop
endfacet
facet normal -0.00498379377111988 0.0677382795017253 -0.997690677158904
outer loop
vertex 3.23174961941975 -11.6105960426391 15.0546903596549
vertex 0.742486986584379 -12.3449880546971 15.017263449063
vertex 3.82871466995734 -10.3045184804191 15.1403845514696
endloop
endfacet
facet normal -0.00498379377111988 0.0677382795017253 -0.997690677158904
outer loop
vertex 3.23174961941975 -11.6105960426391 15.0546903596549
vertex 3.82871466995734 -10.3045184804191 15.1403845514696
vertex 6.45242322092863 -10.3932669258885 15.1212526804648
endloop
endfacet
facet normal -0.00498379377111988 0.0677382795017253 -0.997690677158904
outer loop
vertex 6.45242322092863 -10.3932669258885 15.1212526804648
vertex 3.82871466995734 -10.3045184804191 15.1403845514696
vertex 9.86301811279549 -9.91717035749939 15.1365402452287
endloop
endfacet
facet normal -0.00498379377111988 0.0677382795017253 -0.997690677158904
outer loop
vertex 9.86301811279549 -9.91717035749939 15.1365402452287
vertex 3.82871466995734 -10.3045184804191 15.1403845514696
vertex 7.2907936454344 -8.99594454130158 15.211936046575
endloop
endfacet
facet normal -0.00498379377111988 0.0677382795017253 -0.997690677158904
outer loop
vertex 9.86301811279549 -9.91717035749939 15.1365402452287
vertex 7.2907936454344 -8.99594454130158 15.211936046575
vertex 18.1735869955504 -9.91172137816905 15.0953961733362
endloop
endfacet
facet normal -0.00498379377111988 0.0677382795017253 -0.997690677158904
outer loop
vertex 18.1735869955504 -9.91172137816905 15.0953961733362
vertex 7.2907936454344 -8.99594454130158 15.211936046575
vertex 14.6456028911901 -8.7945521765762 15.1888698991785
endloop
endfacet
facet normal -0.00498379377111988 0.0677382795017253 -0.997690677158904
outer loop
vertex 14.6456028911901 -8.7945521765762 15.1888698991785
vertex 7.2907936454344 -8.99594454130158 15.211936046575
vertex 10.9570294488607 -8.48416218653438 15.2283694897314
endloop
endfacet
facet normal -0.00498379377111988 0.0677382795017253 -0.997690677158904
outer loop
vertex 19.5462049185249 -12.9834421298867 14.8799847954353
vertex 24.0645766344271 -14.307519989259 14.7675156790023
vertex 22.0565964511605 -15.3344744918719 14.7078210528349
endloop
endfacet
facet normal -0.00498379377111988 0.0677382795017253 -0.997690677158904
outer loop
vertex 24.0645766344271 -14.307519989259 14.7675156790023
vertex 19.5462049185249 -12.9834421298867 14.8799847954353
vertex 21.3660188726963 -11.7802661541352 14.9525839433917
endloop
endfacet
facet normal -0.00498379377111988 0.0677382795017253 -0.997690677158904
outer loop
vertex 21.3660188726963 -11.7802661541352 14.9525839433917
vertex 19.5462049185249 -12.9834421298867 14.8799847954353
vertex 16.5763763432185 -11.2451880704563 15.012838951049
endloop
endfacet
facet normal -0.00498379377111988 0.0677382795017253 -0.997690677158904
outer loop
vertex 21.3660188726963 -11.7802661541352 14.9525839433917
vertex 16.5763763432185 -11.2451880704563 15.012838951049
vertex 18.1735869955504 -9.91172137816905 15.0953961733362
endloop
endfacet
facet normal -0.00498379377111988 0.0677382795017253 -0.997690677158904
outer loop
vertex 18.1735869955504 -9.91172137816905 15.0953961733362
vertex 16.5763763432185 -11.2451880704563 15.012838951049
vertex 13.2943930748008 -10.2059173370401 15.0997948995953
endloop
endfacet
facet normal -0.00498379377111988 0.0677382795017253 -0.997690677158904
outer loop
vertex 18.1735869955504 -9.91172137816905 15.0953961733362
vertex 13.2943930748008 -10.2059173370401 15.0997948995953
vertex 9.86301811279549 -9.91717035749939 15.1365402452287
endloop
endfacet
facet normal 0.0105705180948802 -0.0617979186749015 0.998032705573648
outer loop
vertex 23.9520197296764 -14.472460845878 19.0532922957298
vertex 21.9991777267001 -15.4724009963374 19.0120595103319
vertex 24.0859396226909 -14.5978795298952 19.0441080112505
endloop
endfacet
facet normal 0.000198135096240485 0.057643755633212 -0.998337196631971
outer loop
vertex 22.0565964511605 -15.3344744918719 14.7078210528349
vertex 28.8525212246891 -23.6380157752263 14.2297252801549
vertex 26.8445410414225 -24.6649702778392 14.1700306539876
endloop
endfacet
facet normal 0.000198135096240485 0.057643755633212 -0.998337196631971
outer loop
vertex 28.8525212246891 -23.6380157752263 14.2297252801549
vertex 22.0565964511605 -15.3344744918719 14.7078210528349
vertex 24.0645766344271 -14.307519989259 14.7675156790023
endloop
endfacet
facet normal 0.455752657204369 -0.889827672209349 -0.022276203034834
outer loop
vertex 26.8445410414225 -24.6649702778392 14.1700306539876
vertex 28.7868648900764 -23.7941951434226 19.1250691821932
vertex 26.7788847068098 -24.8211496460354 19.0653745560258
endloop
endfacet
facet normal 0.455752657204369 -0.889827672209349 -0.022276203034834
outer loop
vertex 28.7868648900764 -23.7941951434226 19.1250691821932
vertex 26.8445410414225 -24.6649702778392 14.1700306539876
vertex 28.8525212246891 -23.6380157752263 14.2297252801549
endloop
endfacet
facet normal -0.0271264132791651 -0.00506604000288775 0.999619173956411
outer loop
vertex 28.7868648900764 -23.7941951434226 19.1250691821932
vertex 22.0779594394243 -15.6248340325081 18.9844133850832
vertex 26.7788847068098 -24.8211496460354 19.0653745560258
endloop
endfacet
facet normal -0.0271264132791651 -0.00506604000288775 0.999619173956411
outer loop
vertex 22.0779594394243 -15.6248340325081 18.9844133850832
vertex 28.7868648900764 -23.7941951434226 19.1250691821932
vertex 24.0859396226909 -14.5978795298952 19.0441080112505
endloop
endfacet
facet normal -0.890005533126444 -0.455181379383756 -0.0264587011513273
outer loop
vertex 22.0779594394243 -15.6248340325081 18.9844133850832
vertex 26.8445410414225 -24.6649702778392 14.1700306539876
vertex 26.7788847068098 -24.8211496460354 19.0653745560258
endloop
endfacet
facet normal -0.890005533126444 -0.455181379383756 -0.0264587011513273
outer loop
vertex 26.8445410414225 -24.6649702778392 14.1700306539876
vertex 22.0779594394243 -15.6248340325081 18.9844133850832
vertex 22.0565964511605 -15.3344744918719 14.7078210528349
endloop
endfacet
facet normal -0.684515547424287 -0.727546931541934 -0.0459774698993477
outer loop
vertex 22.0565964511605 -15.3344744918719 14.7078210528349
vertex 19.5676519539753 -13.2749440155068 19.1734022810385
vertex 19.5462049185249 -12.9834421298867 14.8799847954353
endloop
endfacet
facet normal -0.684515547424287 -0.727546931541934 -0.0459774698993477
outer loop
vertex 19.5676519539753 -13.2749440155068 19.1734022810385
vertex 22.0565964511605 -15.3344744918719 14.7078210528349
vertex 22.0779594394243 -15.6248340325081 18.9844133850832
endloop
endfacet
facet normal -0.469498929215836 0.882662310478757 0.0218632368483314
outer loop
vertex 26.844800009923 -24.826138285633 19.0661001011476
vertex 26.8506967157349 -24.7016998671906 14.1689018677455
vertex 26.7850403811222 -24.8578792353869 19.0642457697838
endloop
endfacet
facet normal -0.469498929215836 0.882662310478757 0.0218632368483314
outer loop
vertex 26.8506967157349 -24.7016998671906 14.1689018677455
vertex 26.844800009923 -24.826138285633 19.0661001011476
vertex 26.9104563445357 -24.6699589174368 14.1707561991094
endloop
endfacet
facet normal -0.0281555992959151 -0.00538739819228513 0.999589034638239
outer loop
vertex 29.4399731980908 -29.7229734693387 19.112806751336
vertex 26.7850403811222 -24.8578792353869 19.0642457697838
vertex 29.3802135692901 -29.7547144190925 19.1109524199721
endloop
endfacet
facet normal -0.0281555992959151 -0.00538739819228513 0.999589034638239
outer loop
vertex 26.7850403811222 -24.8578792353869 19.0642457697838
vertex 29.4399731980908 -29.7229734693387 19.112806751336
vertex 26.844800009923 -24.826138285633 19.0661001011476
endloop
endfacet
facet normal 0.439435689545235 -0.803926664988122 -0.400747042503099
outer loop
vertex 28.9903719445812 -28.6801530322938 16.5278294885697
vertex 29.3802135692901 -29.7547144190925 19.1109524199721
vertex 28.9306123157805 -28.7118939820476 16.5259751572058
endloop
endfacet
facet normal 0.439435689545235 -0.803926664988122 -0.400747042503099
outer loop
vertex 29.3802135692901 -29.7547144190925 19.1109524199721
vertex 28.9903719445812 -28.6801530322938 16.5278294885697
vertex 29.4399731980908 -29.7229734693387 19.112806751336
endloop
endfacet
facet normal 0.429147654560256 -0.828928206287492 0.358762204540044
outer loop
vertex 29.4585804251135 -29.5842049944301 13.8789307734768
vertex 28.9903719445812 -28.6801530322938 16.5278294885697
vertex 28.9306123157805 -28.7118939820476 16.5259751572058
endloop
endfacet
facet normal 0.429147654560256 -0.828928206287492 0.358762204540044
outer loop
vertex 28.9903719445812 -28.6801530322938 16.5278294885697
vertex 29.4585804251135 -29.5842049944301 13.8789307734768
vertex 29.5183400539142 -29.5524640446763 13.8807851048406
endloop
endfacet
facet normal -0.000400245409288095 0.0590723194656561 -0.998253625526379
outer loop
vertex 26.8506967157349 -24.7016998671906 14.1689018677455
vertex 29.5183400539142 -29.5524640446763 13.8807851048406
vertex 29.4585804251135 -29.5842049944301 13.8789307734768
endloop
endfacet
facet normal -0.000400245409288095 0.0590723194656561 -0.998253625526379
outer loop
vertex 29.5183400539142 -29.5524640446763 13.8807851048406
vertex 26.8506967157349 -24.7016998671906 14.1689018677455
vertex 26.9104563445357 -24.6699589174368 14.1707561991094
endloop
endfacet
facet normal 0.455922485521354 -0.887818358310098 -0.0625559736843154
outer loop
vertex 24.0645766344271 -14.307519989259 14.7675156790023
vertex 22.0779594394243 -15.6248340325081 18.9844133850832
vertex 22.0565964511605 -15.3344744918719 14.7078210528349
endloop
endfacet
facet normal 0.455922485521354 -0.887818358310098 -0.0625559736843154
outer loop
vertex 22.0779594394243 -15.6248340325081 18.9844133850832
vertex 24.0645766344271 -14.307519989259 14.7675156790023
vertex 24.0859396226909 -14.5978795298952 19.0441080112505
endloop
endfacet
facet normal 0.000546066766100649 0.0583417604571347 -0.998296519475977
outer loop
vertex 29.5183400539142 -29.5524640446763 13.8807851048406
vertex 31.4661651251083 -28.5512198438037 13.9464168815839
vertex 29.5241002449548 -29.5831629860141 13.8874478005384
endloop
endfacet
facet normal 0.000546066766100649 0.0583417604571347 -0.998296519475977
outer loop
vertex 31.4661651251083 -28.5512198438037 13.9464168815839
vertex 29.5183400539142 -29.5524640446763 13.8807851048406
vertex 26.9104563445357 -24.6699589174368 14.1707561991094
endloop
endfacet
facet normal 0.000546066766100649 0.0583417604571347 -0.998296519475977
outer loop
vertex 31.4661651251083 -28.5512198438037 13.9464168815839
vertex 26.9104563445357 -24.6699589174368 14.1707561991094
vertex 28.8525212246891 -23.6380157752263 14.2297252801549
endloop
endfacet
facet normal 0.429158300401385 -0.828244562830059 0.360324988502101
outer loop
vertex 29.5241002449548 -29.5831629860141 13.8874478005384
vertex 30.9465776061644 -27.6748785558373 16.5796236636772
vertex 29.0045127260109 -28.7068216980477 16.5206545826316
endloop
endfacet
facet normal 0.429158300401385 -0.828244562830059 0.360324988502101
outer loop
vertex 30.9465776061644 -27.6748785558373 16.5796236636772
vertex 29.5241002449548 -29.5831629860141 13.8874478005384
vertex 31.4661651251083 -28.5512198438037 13.9464168815839
endloop
endfacet
facet normal 0.43936563471095 -0.803963600137573 -0.400749758189417
outer loop
vertex 30.9465776061644 -27.6748785558373 16.5796236636772
vertex 29.4541139795206 -29.7496421350926 19.1056318453979
vertex 29.0045127260109 -28.7068216980477 16.5206545826316
endloop
endfacet
facet normal 0.43936563471095 -0.803963600137573 -0.400749758189417
outer loop
vertex 29.4541139795206 -29.7496421350926 19.1056318453979
vertex 30.9465776061644 -27.6748785558373 16.5796236636772
vertex 31.396178859674 -28.7176989928821 19.1646009264435
endloop
endfacet
facet normal -0.0263371610600603 -0.00550634058142653 0.999637951540806
outer loop
vertex 31.396178859674 -28.7176989928821 19.1646009264435
vertex 29.4399731980908 -29.7229734693387 19.112806751336
vertex 29.4541139795206 -29.7496421350926 19.1056318453979
endloop
endfacet
facet normal -0.0263371610600603 -0.00550634058142653 0.999637951540806
outer loop
vertex 29.4399731980908 -29.7229734693387 19.112806751336
vertex 31.396178859674 -28.7176989928821 19.1646009264435
vertex 26.844800009923 -24.826138285633 19.0661001011476
endloop
endfacet
facet normal -0.0263371610600603 -0.00550634058142653 0.999637951540806
outer loop
vertex 26.844800009923 -24.826138285633 19.0661001011476
vertex 31.396178859674 -28.7176989928821 19.1646009264435
vertex 28.7868648900764 -23.7941951434226 19.1250691821932
endloop
endfacet
facet normal -0.46963904928278 0.882587869997617 0.0218589826349951
outer loop
vertex 28.7868648900764 -23.7941951434226 19.1250691821932
vertex 26.9104563445357 -24.6699589174368 14.1707561991094
vertex 26.844800009923 -24.826138285633 19.0661001011476
endloop
endfacet
facet normal -0.46963904928278 0.882587869997617 0.0218589826349951
outer loop
vertex 26.9104563445357 -24.6699589174368 14.1707561991094
vertex 28.7868648900764 -23.7941951434226 19.1250691821932
vertex 28.8525212246891 -23.6380157752263 14.2297252801549
endloop
endfacet
facet normal -0.882823183882763 -0.46890596349832 -0.0273938568809528
outer loop
vertex 26.844800009923 -24.826138285633 19.0661001011476
vertex 28.9903719445812 -28.6801530322938 16.5278294885697
vertex 29.4399731980908 -29.7229734693387 19.112806751336
endloop
endfacet
facet normal -0.882823183882763 -0.46890596349832 -0.0273938568809528
outer loop
vertex 28.9903719445812 -28.6801530322938 16.5278294885697
vertex 26.844800009923 -24.826138285633 19.0661001011476
vertex 26.9104563445357 -24.6699589174368 14.1707561991094
endloop
endfacet
facet normal -0.882823183882763 -0.46890596349832 -0.0273938568809528
outer loop
vertex 28.9903719445812 -28.6801530322938 16.5278294885697
vertex 26.9104563445357 -24.6699589174368 14.1707561991094
vertex 29.5183400539142 -29.5524640446763 13.8807851048406
endloop
endfacet
facet normal 0.684515547424286 0.727546931541935 0.0459774698993461
outer loop
vertex 23.9520197296764 -14.472460845878 19.0532922957298
vertex 21.3660188726963 -11.7802661541352 14.9525839433917
vertex 21.3874659081467 -12.0717680397554 19.246001428995
endloop
endfacet
facet normal 0.599088839030425 0.799040146450819 0.0512582413766882
outer loop
vertex 21.3660188726963 -11.7802661541352 14.9525839433917
vertex 23.9520197296764 -14.472460845878 19.0532922957298
vertex 24.0645766344271 -14.307519989259 14.7675156790023
endloop
endfacet
facet normal 0.684515547424286 0.727546931541935 0.0459774698993461
outer loop
vertex 24.0645766344271 -14.307519989259 14.7675156790023
vertex 23.9520197296764 -14.472460845878 19.0532922957298
vertex 24.0859396226909 -14.5978795298952 19.0441080112505
endloop
endfacet
facet normal -0.888874199864921 -0.457146233972845 -0.0303311321737397
outer loop
vertex 29.5241002449548 -29.5831629860141 13.8874478005384
vertex 32.7128622869534 -35.9409161456206 16.3461106263299
vertex 29.0045127260109 -28.7068216980477 16.5206545826316
endloop
endfacet
facet normal -0.888874199864921 -0.457146233972845 -0.0303311321737397
outer loop
vertex 32.7128622869534 -35.9409161456206 16.3461106263299
vertex 29.5241002449548 -29.5831629860141 13.8874478005384
vertex 33.3879647116212 -36.9467094196594 12.3296394294522
endloop
endfacet
facet normal -0.418033639206586 0.834377817773571 -0.359251351701162
outer loop
vertex 30.9465776061644 -27.6748785558373 16.5796236636772
vertex 29.5183400539142 -29.5524640446763 13.8807851048406
vertex 28.9903719445812 -28.6801530322938 16.5278294885697
endloop
endfacet
facet normal -0.418033639206586 0.834377817773571 -0.359251351701162
outer loop
vertex 29.5183400539142 -29.5524640446763 13.8807851048406
vertex 30.9465776061644 -27.6748785558373 16.5796236636772
vertex 31.4661651251083 -28.5512198438037 13.9464168815839
endloop
endfacet
facet normal -0.0590311131870351 0.175720074855789 -0.982668704583887
outer loop
vertex 29.5241002449548 -29.5831629860141 13.8874478005384
vertex 35.3357897828153 -35.9454652187868 12.3952712061955
vertex 33.3879647116212 -36.9467094196594 12.3296394294522
endloop
endfacet
facet normal -0.0590311131870351 0.175720074855789 -0.982668704583887
outer loop
vertex 35.3357897828153 -35.9454652187868 12.3952712061955
vertex 29.5241002449548 -29.5831629860141 13.8874478005384
vertex 31.4661651251083 -28.5512198438037 13.9464168815839
endloop
endfacet
facet normal -0.0590311131870351 0.175720074855789 -0.982668704583887
outer loop
vertex 31.4661651251083 -28.5512198438037 13.9464168815839
vertex 29.5241002449548 -29.5831629860141 13.8874478005384
vertex 29.5183400539142 -29.5524640446763 13.8807851048406
endloop
endfacet
facet normal 0.43102515284274 -0.855435302922557 0.287137179986651
outer loop
vertex 33.3879647116212 -36.9467094196594 12.3296394294522
vertex 34.6690679485367 -34.935641669164 16.3979048014374
vertex 32.7128622869534 -35.9409161456206 16.3461106263299
endloop
endfacet
facet normal 0.43102515284274 -0.855435302922557 0.287137179986651
outer loop
vertex 34.6690679485367 -34.935641669164 16.3979048014374
vertex 33.3879647116212 -36.9467094196594 12.3296394294522
vertex 35.3357897828153 -35.9454652187868 12.3952712061955
endloop
endfacet
facet normal -0.427054911731877 0.81035391823573 0.401186527148756
outer loop
vertex 29.4399731980908 -29.7229734693387 19.112806751336
vertex 30.9465776061644 -27.6748785558373 16.5796236636772
vertex 28.9903719445812 -28.6801530322938 16.5278294885697
endloop
endfacet
facet normal -0.427054911731877 0.81035391823573 0.401186527148756
outer loop
vertex 30.9465776061644 -27.6748785558373 16.5796236636772
vertex 29.4399731980908 -29.7229734693387 19.112806751336
vertex 31.396178859674 -28.7176989928821 19.1646009264435
endloop
endfacet
endsolid f18
